<svg width="168" height="40" viewBox="0 0 168 40" fill="none" xmlns="http://www.w3.org/2000/svg">
<path fill-rule="evenodd" clip-rule="evenodd" d="M13 4H25C27.2091 4 29 5.79086 29 8V9H33V8C33 3.58172 29.4183 0 25 0H13C8.58172 0 5 3.58172 5 8V9H9V8C9 5.79086 10.7909 4 13 4ZM9.12602 33H5.06189C5.55399 36.9463 8.92038 40 13 40H25C29.0796 40 32.446 36.9463 32.9381 33H28.874C28.4299 34.7252 26.8638 36 25 36H13C11.1362 36 9.57006 34.7252 9.12602 33Z" fill="#6535E9"/>
<path d="M35.5 12H40L33.5 30H29L35.5 12Z" fill="#6535E9"/>
<path d="M21.5 12H26L19.5 30H15L21.5 12Z" fill="#6535E9"/>
<path d="M28.5 12H33L26.5 30H22L28.5 12Z" fill="#6535E9"/>
<path d="M4.76554 30V15.9945H0V12H13.963V15.9945H9.19749V30H4.76554Z" fill="#6535E9"/>
<path d="M57.616 28V13.48H52.552V10.48H66.088V13.48H61.024V28H57.616ZM72.7593 28.456C71.6393 28.456 70.6553 28.264 69.8073 27.88C68.9753 27.496 68.2793 26.984 67.7193 26.344C67.1753 25.688 66.7593 24.96 66.4713 24.16C66.1993 23.36 66.0633 22.544 66.0633 21.712V21.256C66.0633 20.392 66.1993 19.56 66.4713 18.76C66.7593 17.96 67.1753 17.24 67.7193 16.6C68.2793 15.96 68.9673 15.456 69.7833 15.088C70.5993 14.704 71.5433 14.512 72.6153 14.512C74.0233 14.512 75.1993 14.824 76.1433 15.448C77.0873 16.056 77.7993 16.864 78.2793 17.872C78.7753 18.864 79.0233 19.936 79.0233 21.088V22.288H69.2313C69.3433 23.312 69.6793 24.136 70.2393 24.76C70.8153 25.384 71.6553 25.696 72.7593 25.696C73.5593 25.696 74.2153 25.536 74.7273 25.216C75.2553 24.88 75.5913 24.472 75.7353 23.992H78.8073C78.5193 25.336 77.8393 26.416 76.7673 27.232C75.6953 28.048 74.3593 28.456 72.7593 28.456ZM72.6153 17.272C71.6713 17.272 70.9193 17.536 70.3593 18.064C69.7993 18.592 69.4393 19.32 69.2793 20.248H75.8313C75.7033 19.32 75.3673 18.592 74.8233 18.064C74.2953 17.536 73.5593 17.272 72.6153 17.272ZM87.5941 28.456C86.4581 28.456 85.4741 28.264 84.6421 27.88C83.8101 27.496 83.1221 26.984 82.5781 26.344C82.0341 25.704 81.6261 24.984 81.3541 24.184C81.0821 23.384 80.9461 22.568 80.9461 21.736V21.28C80.9461 20.416 81.0821 19.584 81.3541 18.784C81.6421 17.968 82.0581 17.24 82.6021 16.6C83.1621 15.96 83.8501 15.456 84.6661 15.088C85.4981 14.704 86.4661 14.512 87.5701 14.512C88.7061 14.512 89.7141 14.736 90.5941 15.184C91.4901 15.616 92.2021 16.224 92.7301 17.008C93.2741 17.792 93.5861 18.704 93.6661 19.744H90.4261C90.3301 19.072 90.0421 18.512 89.5621 18.064C89.0821 17.616 88.4181 17.392 87.5701 17.392C86.4501 17.392 85.6181 17.776 85.0741 18.544C84.5461 19.312 84.2821 20.296 84.2821 21.496C84.2821 22.664 84.5381 23.64 85.0501 24.424C85.5781 25.192 86.4261 25.576 87.5941 25.576C88.4581 25.576 89.1381 25.352 89.6341 24.904C90.1461 24.456 90.4501 23.872 90.5461 23.152H93.7861C93.7221 24.208 93.4101 25.136 92.8501 25.936C92.3061 26.736 91.5781 27.36 90.6661 27.808C89.7541 28.24 88.7301 28.456 87.5941 28.456ZM96.4585 28V10.48H99.7945V17.152C100.131 16.32 100.627 15.68 101.283 15.232C101.939 14.784 102.763 14.56 103.755 14.56H103.899C105.387 14.56 106.515 15.08 107.283 16.12C108.051 17.144 108.435 18.624 108.435 20.56V28H105.099V20.248C105.099 19.416 104.859 18.76 104.379 18.28C103.915 17.8 103.299 17.56 102.531 17.56C101.699 17.56 101.035 17.832 100.539 18.376C100.043 18.904 99.7945 19.6 99.7945 20.464V28H96.4585ZM115.165 28L110.701 10.48H114.229L117.709 25.168H118.381L121.117 11.152H124.813L127.957 25.168H128.605L131.701 10.48H135.037L131.053 28H125.629L122.941 16.312L120.493 28H115.165ZM139.064 13.408C138.408 13.408 137.92 13.24 137.6 12.904C137.296 12.552 137.144 12.112 137.144 11.584C137.144 11.056 137.296 10.624 137.6 10.288C137.92 9.952 138.408 9.784 139.064 9.784C139.704 9.784 140.176 9.952 140.48 10.288C140.8 10.624 140.96 11.056 140.96 11.584C140.96 12.112 140.8 12.552 140.48 12.904C140.176 13.24 139.704 13.408 139.064 13.408ZM137.84 28V17.464H136.016V14.968H141.176V28H137.84ZM145.021 28V14.968H147.661V19.216C148.013 16.272 149.565 14.8 152.317 14.8H152.797V17.704H151.885C150.749 17.704 149.877 18.008 149.269 18.616C148.661 19.224 148.357 20.088 148.357 21.208V28H145.021ZM160.767 28.456C159.647 28.456 158.663 28.264 157.815 27.88C156.983 27.496 156.287 26.984 155.727 26.344C155.183 25.688 154.767 24.96 154.479 24.16C154.207 23.36 154.071 22.544 154.071 21.712V21.256C154.071 20.392 154.207 19.56 154.479 18.76C154.767 17.96 155.183 17.24 155.727 16.6C156.287 15.96 156.975 15.456 157.791 15.088C158.607 14.704 159.551 14.512 160.623 14.512C162.031 14.512 163.207 14.824 164.151 15.448C165.095 16.056 165.807 16.864 166.287 17.872C166.783 18.864 167.031 19.936 167.031 21.088V22.288H157.239C157.351 23.312 157.687 24.136 158.247 24.76C158.823 25.384 159.663 25.696 160.767 25.696C161.567 25.696 162.223 25.536 162.735 25.216C163.263 24.88 163.599 24.472 163.743 23.992H166.815C166.527 25.336 165.847 26.416 164.775 27.232C163.703 28.048 162.367 28.456 160.767 28.456ZM160.623 17.272C159.679 17.272 158.927 17.536 158.367 18.064C157.807 18.592 157.447 19.32 157.287 20.248H163.839C163.711 19.32 163.375 18.592 162.831 18.064C162.303 17.536 161.567 17.272 160.623 17.272Z" fill="#26222F"/>
</svg>
